<?xml version="1.0" encoding="iso-8859-1"?>
<!-- Uploaded to: SVG Repo, www.svgrepo.com, Generator: SVG Repo Mixer Tools -->
<svg fill="#000000" height="800px" width="800px" version="1.1" id="Layer_1" xmlns="http://www.w3.org/2000/svg" xmlns:xlink="http://www.w3.org/1999/xlink" 
	 viewBox="0 0 512 512" xml:space="preserve">
<g>
	<g>
		<path d="M495.46,0h-84.515c-7.778,0-14.086,6.308-14.086,14.086v21.513H115.141V14.086C115.141,6.308,108.835,0,101.055,0H16.54
			C8.76,0,2.454,6.308,2.454,14.086v483.828C2.454,505.692,8.76,512,16.54,512h84.515c7.78,0,14.086-6.308,14.086-14.086v-21.513
			h281.718v21.513c0,7.778,6.308,14.086,14.086,14.086h84.515c7.778,0,14.086-6.308,14.086-14.086V14.086
			C509.546,6.308,503.24,0,495.46,0z M86.969,462.313v21.515H30.626v-101.6h56.344V462.313z M86.969,354.058H30.626V247.277h56.344
			V354.058z M86.969,219.105H30.626V112.324h56.344V219.105z M86.969,49.685v34.467H30.626v-55.98h56.344V49.685z M396.859,448.229
			H115.141V179.936h215.928c7.778,0,14.086-6.308,14.086-14.086s-6.308-14.086-14.086-14.086H115.141V63.771h281.718V448.229z
			 M481.374,483.83h-56.344v-0.001v-21.513v-80.085h56.344V483.83z M481.374,354.058h-56.344V247.277h56.344V354.058z
			 M481.374,219.105h-56.344V112.324h56.344V219.105z M481.374,84.152h-56.344V49.685V28.172h56.344V84.152z"/>
	</g>
</g>
<g>
	<g>
		<path d="M386.913,163.103c-0.182-0.901-0.449-1.79-0.801-2.634c-0.352-0.859-0.79-1.676-1.296-2.437
			c-0.521-0.775-1.113-1.493-1.761-2.141s-1.368-1.24-2.142-1.747c-0.761-0.506-1.578-0.944-2.423-1.296
			c-0.859-0.352-1.747-0.618-2.634-0.803c-1.817-0.366-3.69-0.366-5.508,0c-0.901,0.185-1.789,0.451-2.634,0.803
			c-0.858,0.352-1.675,0.79-2.435,1.296c-0.775,0.507-1.495,1.099-2.143,1.747c-0.648,0.648-1.24,1.366-1.747,2.141
			c-0.506,0.761-0.944,1.578-1.296,2.437c-0.352,0.845-0.618,1.733-0.802,2.634s-0.282,1.831-0.282,2.747
			c0,0.914,0.099,1.845,0.282,2.745c0.183,0.903,0.449,1.79,0.802,2.634c0.352,0.859,0.79,1.676,1.296,2.437
			c0.507,0.775,1.099,1.493,1.747,2.141c0.648,0.648,1.368,1.24,2.143,1.747c0.761,0.507,1.578,0.944,2.435,1.296
			c0.847,0.352,1.733,0.62,2.634,0.803c0.901,0.183,1.831,0.282,2.747,0.282c0.916,0,1.845-0.099,2.761-0.282
			c0.887-0.183,1.775-0.451,2.634-0.803c0.845-0.352,1.662-0.789,2.423-1.296c0.775-0.507,1.495-1.099,2.142-1.747
			s1.24-1.366,1.761-2.141c0.506-0.761,0.928-1.578,1.28-2.437c0.352-0.845,0.634-1.731,0.817-2.634
			c0.169-0.901,0.268-1.831,0.268-2.745C387.181,164.935,387.082,164.004,386.913,163.103z"/>
	</g>
</g>
<g>
	<g>
		<path d="M357.537,285.845c-1.72-32.143-27.714-57.321-59.179-57.321c-17.892,0-32.685,10.239-42.252,19.267
			c-9.466-9.035-24.214-19.267-42.468-19.267c-31.464,0-57.456,25.179-59.176,57.321c-1.037,19.416,6.436,33.184,12.148,41.849
			c7.802,11.838,26.817,29.489,42.01,42.059c34.005,28.137,43.435,28.137,47.464,28.137c4.078,0,13.624,0,47.457-28.089
			c15.079-12.52,33.995-30.156,41.863-42.121C351.109,318.999,358.576,305.218,357.537,285.845z M321.863,312.204
			c-10.131,15.407-52.547,50.988-65.747,57.021c-13.317-6.122-55.9-41.731-65.984-57.031c-5.748-8.722-8.002-16.154-7.539-24.845
			c0.904-16.902,14.831-30.654,31.045-30.654c13.942,0,26.86,14.592,30.63,20.167c2.562,3.861,6.875,6.194,11.51,6.272
			c4.637,0.132,9.023-2.144,11.718-5.916c4.078-5.709,17.569-20.523,30.862-20.523c16.216,0,30.142,13.752,31.048,30.655
			C329.876,296.136,327.692,303.339,321.863,312.204z"/>
	</g>
</g>
</svg>